<?xml version="1.0" standalone="no"?><!DOCTYPE svg PUBLIC "-//W3C//DTD SVG 1.1//EN" "http://www.w3.org/Graphics/SVG/1.1/DTD/svg11.dtd"><svg t="1698216970524" class="icon" viewBox="0 0 1024 1024" version="1.1" xmlns="http://www.w3.org/2000/svg" p-id="4939" xmlns:xlink="http://www.w3.org/1999/xlink" width="200" height="200"><path d="M97.98689032 553.01285161a28.71714408 28.71714408 0 0 1-28.70062795-28.68301075c0-7.78570323 3.22504947-15.34018065 8.85154408-20.72994409l413.39870968-395.72975483a28.55969032 28.55969032 0 0 1 19.83807311-7.96627957 28.57290323 28.57290323 0 0 1 19.78632258 7.9156301L945.84567742 502.86107527c11.264 10.99313548 11.4776086 29.19170753 0.42831828 40.51736774a28.48591828 28.48591828 0 0 1-20.53175054 8.64233978 28.59382366 28.59382366 0 0 1-19.53307527-7.67889892l-394.78393118-376.08326882-393.6167914 376.787957a28.46940215 28.46940215 0 0 1-19.79292903 7.96627956h-0.02862796z" fill="currentColor" p-id="4940"></path><path d="M274.19857205 919.30976344c-48.14451613 0-99.31588818-35.76953118-99.31588818-102.06086881V432.84369892a28.71714408 28.71714408 0 0 1 28.68301076-28.68301074 28.71163871 28.71163871 0 0 1 28.68411182 28.68301074v384.41070108c0 35.27845161 26.36634839 44.68824086 41.94326021 44.68824086h472.68280431c31.0227957 0 44.85780645-14.21267957 44.85780645-46.08660645V444.07907097c0-15.81254194 12.86936774-28.68301076 28.68851613-28.68301076s28.68961721 12.87046882 28.68961721 28.68301076v371.77145806c0 31.02830108-9.57935484 57.11938065-27.71406452 75.45778925-18.11268818 18.3163871-43.87784947 28.00144516-74.5163699 28.00144516H274.19857205z" fill="currentColor" p-id="4941"></path><path d="M597.67907097 919.30976344a28.72264947 28.72264947 0 0 1-28.68961721-28.6896172V697.80645161c0-21.50179785-7.57099355-29.4956043-27.93427957-29.4956043h-62.71064085c-16.45006452 0-23.3339871 3.73264516-23.3339871 26.86293334v195.45847741a28.71163871 28.71163871 0 0 1-28.68301076 28.68301076 28.71714408 28.71714408 0 0 1-28.68411182-28.68301076V695.17378065c0-52.7448086 30.17166452-84.23556129 80.70110968-84.2355613h62.71724731c51.81990537 0 85.30580645 34.10030108 85.30580645 86.87483871v192.81259355a28.72264947 28.72264947 0 0 1-28.68851613 28.68411183z" fill="currentColor" p-id="4942"></path></svg>